
<svg  xmlns="http://www.w3.org/2000/svg" xmlns:xlink="http://www.w3.org/1999/xlink" x="0px" y="0px"
	 viewBox="0 0 441.21 211.6" style="enable-background:new 0 0 441.21 211.6;" xml:space="preserve">
<g>
	<path d="M0,16.44h75.3v102.49H0V16.44z M17.78,136.73h22.3v56.61h-22.3V136.73z M17.78,182.61h107.49v24.2H17.78V182.61z
		 M53.5,40.63H21.97v54.1H53.5V40.63z M98.94,0h22.3v150.2h-22.3V0z"/>
	<path d="M182.45,21h18.11v13.47c0,13.39-1.57,26.18-4.7,38.35c-3.13,12.18-7.91,22.87-14.34,32.07
		c-6.43,9.21-14.62,16.09-24.57,20.66l-11.24-23.97c6.37-2.89,11.88-6.77,16.52-11.64c4.64-4.87,8.44-10.31,11.4-16.32
		c2.96-6.01,5.17-12.36,6.62-19.06c1.45-6.69,2.18-13.39,2.18-20.09V21z M151.76,12.78h83.51v23.97h-83.51V12.78z M223.87,130.11
		c10.96,0,20.4,1.6,28.34,4.79c7.94,3.2,14.06,7.84,18.36,13.92c4.3,6.09,6.46,13.39,6.46,21.91c0,13.09-4.75,23.17-14.25,30.25
		c-9.5,7.08-22.47,10.62-38.91,10.62c-16.43,0-29.4-3.54-38.9-10.62c-9.5-7.08-14.25-17.16-14.25-30.25
		c0-8.52,2.15-15.83,6.46-21.91c4.3-6.08,10.42-10.73,18.36-13.92C203.47,131.71,212.92,130.11,223.87,130.11z M187.15,21h17.78
		v13.24c0,8.37,1.23,16.59,3.69,24.65c2.46,8.07,6.29,15.37,11.49,21.91c5.2,6.54,11.88,11.72,20.04,15.52l-10.9,23.74
		c-9.62-4.41-17.52-10.92-23.73-19.52c-6.2-8.6-10.82-18.64-13.83-30.13c-3.02-11.49-4.53-23.55-4.53-36.18V21z M223.87,153.17
		c-6.71,0-12.35,0.65-16.94,1.94c-4.59,1.29-8.08,3.23-10.48,5.82c-2.41,2.59-3.61,5.86-3.61,9.82c0,3.96,1.2,7.27,3.61,9.93
		c2.4,2.66,5.9,4.64,10.48,5.94c4.58,1.29,10.23,1.94,16.94,1.94c6.71,0,12.35-0.65,16.94-1.94c4.58-1.29,8.05-3.27,10.4-5.94
		c2.35-2.66,3.52-5.97,3.52-9.93c0-3.96-1.17-7.23-3.52-9.82c-2.35-2.59-5.81-4.53-10.4-5.82
		C236.23,153.82,230.58,153.17,223.87,153.17z M230.75,50.9h29.51v24.65h-29.51V50.9z M254.06,0h22.47v125.55h-22.47V0z"/>
	<path d="M300.68,107.74h140.53v23.97H300.68V107.74z M370.94,6.16c11.29,0,21.16,1.75,29.6,5.25c8.44,3.5,15.01,8.52,19.7,15.07
		c4.7,6.54,7.04,14.23,7.04,23.06c0,8.98-2.35,16.74-7.04,23.28c-4.7,6.54-11.26,11.57-19.7,15.07c-8.44,3.5-18.31,5.25-29.6,5.25
		c-11.18,0-20.99-1.75-29.43-5.25c-8.44-3.5-15.01-8.52-19.7-15.07c-4.7-6.54-7.04-14.3-7.04-23.28c0-8.82,2.35-16.51,7.04-23.06
		c4.7-6.54,11.26-11.56,19.7-15.07C349.95,7.91,359.76,6.16,370.94,6.16z M317.78,145.86h22.3v45.2h-22.3V145.86z M317.78,183.3
		h107.66v24.42H317.78V183.3z M370.94,30.13c-6.82,0-12.75,0.76-17.78,2.28c-5.03,1.52-8.83,3.69-11.4,6.51
		c-2.57,2.82-3.86,6.36-3.86,10.61c0,4.26,1.28,7.84,3.86,10.73c2.57,2.89,6.37,5.1,11.4,6.62c5.03,1.52,10.96,2.28,17.78,2.28
		c7.04,0,13.02-0.76,17.94-2.28c4.92-1.52,8.69-3.73,11.32-6.62c2.62-2.89,3.94-6.47,3.94-10.73c0-4.26-1.32-7.8-3.94-10.61
		c-2.63-2.81-6.4-4.98-11.32-6.51C383.96,30.89,377.98,30.13,370.94,30.13z"/>
</g>
</svg>
